<svg fill="none" height="26" viewBox="0 0 26 26" width="26" xmlns="http://www.w3.org/2000/svg"><rect fill="#030303" fill-opacity=".01" height="24" opacity=".01" rx="3" stroke="#50e3c2" stroke-width=".01" width="24" x="1" y="1"/><path clip-rule="evenodd" d="m16.4494 16.495 2.3552-2.5596s-12.59868.0108-13.85921.0108c-1.26052 0-1.26052-1.8946 0-1.8946l13.85921-.0109-2.3188-2.53713c-.3303-.3614-.3191-.91209.0256-1.26025.3149-.31799.8328-.32525 1.1568-.01619.014.01329.0274.02707.0404.04131l4.2914 4.72186-4.3286 4.742c-.3022.331-.8205.3589-1.1578.0623-.0143-.0125-.0281-.0256-.0415-.0391-.3445-.3488-.3545-.9-.0227-1.2605z" fill="#fff" fill-rule="evenodd"/></svg>
