<svg fill="none" height="10" viewBox="0 0 16 10" width="16" xmlns="http://www.w3.org/2000/svg"><path clip-rule="evenodd" d="m.348584 0c-.192517 0-.348584.156066-.348584.348584v.969496c0 .19252.156066.34859.348584.34859h15.302816c.1925 0 .3486-.15607.3486-.34859v-.969496c0-.192518-.1561-.348584-.3486-.348584zm5.873636 9.65142c0 .19251.15607.34858.34859.34858h2.85838c.19252 0 .34859-.15607.34859-.34858v-.9695c0-.19252-.15607-.34859-.34859-.34859h-2.85838c-.19252 0-.34859.15607-.34859.34859zm-3.20697-3.81809c-.19252 0-.34858-.15606-.34858-.34858v-.9695c0-.19252.15606-.34858.34858-.34858h9.96945c.1926 0 .3486.15606.3486.34858v.9695c0 .19252-.156.34858-.3486.34858z" fill="#ffffff"  /></svg>