<!DOCTYPE svg PUBLIC "-//W3C//DTD SVG 1.1//EN" "http://www.w3.org/Graphics/SVG/1.1/DTD/svg11.dtd">
<!-- Uploaded to: SVG Repo, www.svgrepo.com, Transformed by: SVG Repo Mixer Tools -->
<svg fill="#000000" version="1.1" id="Capa_1" xmlns="http://www.w3.org/2000/svg" xmlns:xlink="http://www.w3.org/1999/xlink" width="64px" height="64px" viewBox="0 0 45.58 45.58" xml:space="preserve">
<g id="SVGRepo_bgCarrier" stroke-width="0"/>
<g id="SVGRepo_tracerCarrier" stroke-linecap="round" stroke-linejoin="round"/>
<g id="SVGRepo_iconCarrier"> <g> <g> <path d="M32.125,30.599c1.207,0,2.186-0.904,2.186-2.111l0,0c0-6.236-5.074-11.272-11.311-11.272 c-6.237,0-11.311,5.018-11.311,11.254c0,1.207,0.979,2.13,2.186,2.13H32.125z"/> <g> <path d="M43,39.599H2c-1.104,0-2-0.896-2-2s0.896-2,2-2h41c1.104,0,2,0.896,2,2S44.104,39.599,43,39.599z"/> </g> <g> <g> <g> <path d="M23,13.926c-1.219,0-2-0.988-2-2.206V8.188c0-1.219,0.781-2.207,2-2.207c1.219,0,2,0.988,2,2.207v3.531 C25,12.938,24.219,13.926,23,13.926z"/> </g> </g> <g> <g> <path d="M33.35,18.213c-0.863-0.862-0.863-2.259,0-3.121l2.496-2.497c0.861-0.861,2.26-0.861,3.121,0 c0.862,0.862,0.862,2.26,0,3.121l-2.496,2.497C35.607,19.075,34.211,19.075,33.35,18.213z"/> </g> </g> <g> <g> <path d="M43.373,26.599h-3.531c-1.219,0-2.207,0.792-2.207,2.011c0,1.147,0.879,1.989,1.998,1.989h1.7c0.075,0,0.142,0,0.212,0 h1.828c1.219,0,2.207-0.781,2.207-2S44.592,26.599,43.373,26.599z"/> </g> </g> <g> <g> <path d="M8.364,28.599c0-1.219-0.988-2-2.207-2h-3.53c-1.219,0-2.207,0.781-2.207,2s0.988,2,2.207,2h3.531 C7.376,30.599,8.364,29.817,8.364,28.599z"/> </g> </g> <g> <g> <path d="M12.651,18.213c0.862-0.862,0.862-2.259,0-3.121l-2.497-2.497c-0.862-0.861-2.259-0.861-3.121,0 c-0.862,0.862-0.862,2.26,0,3.121l2.497,2.497C10.392,19.076,11.789,19.076,12.651,18.213z"/> </g> </g> </g> </g> </g> </g>
</svg>