<svg fill="none" height="24" viewBox="0 0 24 24" width="24" xmlns="http://www.w3.org/2000/svg"><path clip-rule="evenodd" d="m18 16.1365c-.76 0-1.44.3013-1.96.7731l-7.13-4.1666c.05-.231.09-.4619.09-.7028 0-.241-.04-.4719-.09-.7029l7.05-4.12646c.54.50201 1.25.81326 2.04.81326 1.66 0 3-1.34539 3-3.01205 0-1.66667-1.34-3.01205-3-3.01205s-3 1.34538-3 3.01205c0 .24096.04.47189.09.70281l-7.05 4.12651c-.54-.50201-1.25-.81326-2.04-.81326-1.66 0-3 1.34539-3 3.01209 0 1.6666 1.34 3.012 3 3.012.79 0 1.5-.3112 2.04-.8132l7.12 4.1767c-.05.2108-.08.4317-.08.6526 0 1.6164 1.31 2.9317 2.92 2.9317s2.92-1.3153 2.92-2.9317c0-1.6165-1.31-2.9318-2.92-2.9318z" fill="#2dbd58" fill-rule="evenodd"/></svg>