<!DOCTYPE svg PUBLIC "-//W3C//DTD SVG 1.1//EN" "http://www.w3.org/Graphics/SVG/1.1/DTD/svg11.dtd">
<!-- Uploaded to: SVG Repo, www.svgrepo.com, Transformed by: SVG Repo Mixer Tools -->
<svg height="64px" width="64px" version="1.1" id="_x32_" xmlns="http://www.w3.org/2000/svg" xmlns:xlink="http://www.w3.org/1999/xlink" viewBox="0 0 512 512" xml:space="preserve" fill="#000000">
<g id="SVGRepo_bgCarrier" stroke-width="0"/>
<g id="SVGRepo_tracerCarrier" stroke-linecap="round" stroke-linejoin="round"/>
<g id="SVGRepo_iconCarrier"> <style type="text/css"> .st0{fill:#000000;} </style> <g> <path class="st0" d="M499.497,176.948c-4.058-12.402-9.126-24.704-15.252-36.623c-2.059-4.168-4.275-8.235-6.601-12.302 c-16.928-29.339-38.882-54.144-64.111-73.78c-8.285-6.534-16.945-12.444-25.914-17.778c-1.85-1.108-3.692-2.158-5.543-3.217 C343.612,11.502,300.012,0.05,255.796,0c-43.432,0-87.498,11.135-127.764,34.356c-24.963,14.403-46.6,32.398-64.603,52.984 c-8.643,9.818-16.403,20.212-23.321,31.139c-2.425,3.742-4.693,7.593-6.851,11.443c-15.945,28.189-26.338,59.111-30.772,91.033 c-1.424,10.186-2.216,20.529-2.375,30.872C0,253.312,0,254.729,0,256.212c0,43.424,11.136,87.499,34.356,127.764 c23.646,40.999,57.102,73.088,95.576,94.776c22.429,12.669,46.542,21.846,71.555,27.288c12.876,2.851,26.021,4.642,39.215,5.434 c5.167,0.367,10.343,0.525,15.519,0.525c31.448,0,63.22-5.801,93.666-17.887c9.661-3.8,19.104-8.234,28.389-13.302 c1.901-1,3.8-2.058,5.701-3.167c41.008-23.646,73.088-57.102,94.784-95.575c21.736-38.465,33.188-82.056,33.239-126.281 C512,229.408,507.941,202.803,499.497,176.948z M405.306,95.726c15.511,14.411,29.172,31.406,40.366,50.767 c7.701,13.353,13.878,27.238,18.47,41.324c-2.901,5.752-5.968,11.403-9.176,16.995c-36.582,63.22-90.358,113.779-155.686,146.335 c-5.018,2.484-10.027,4.859-15.145,7.076c-9.818-27.397-14.936-56.469-14.936-85.758c0-1.85,0-3.751,0.05-5.651 c30.031-16.403,56.727-38.099,78.848-63.903c5.959-6.968,11.61-14.194,16.836-21.746c2.584-3.584,5.01-7.276,7.385-11.027 C386.72,147.342,397.913,122.322,405.306,95.726z M146.502,66.329c34.564-19.937,72.138-29.338,109.294-29.338 c37.84-0.05,75.197,9.818,108.137,28.396c6.118,3.426,12.077,7.226,17.878,11.293c-6.376,28.388-17.628,54.935-32.714,78.79 c-1.792,2.85-3.634,5.642-5.593,8.443h-0.058c-5.852-4.384-11.87-8.602-17.995-12.669 c-61.636-40.841-132.824-63.537-206.604-65.962C127.448,78.364,136.633,72.029,146.502,66.329z M65.387,148.076 c7.026-12.452,15.302-24.221,24.754-35.198c5.167-0.258,10.393-0.376,15.57-0.376c73.029,0,143.742,21.321,204.544,61.645 c5.593,3.701,11.085,7.551,16.411,11.56c-20.211,23.429-44.749,43.166-72.296,57.943c-29.288-18.261-61.644-30.872-95.258-37.365 c-9.018-1.742-18.095-3.059-27.23-3.851c-8.71-0.842-17.412-1.267-26.171-1.267c-21.171,0-42.483,2.376-63.487,7.335 C46.917,187.4,54.726,167.021,65.387,148.076z M148.085,446.613c-32.931-18.628-61.428-45.959-81.748-81.106 c-19.945-34.564-29.347-72.138-29.396-109.295c0-6.126,0.266-12.185,0.8-18.261c22.371-6.276,45.275-9.344,67.971-9.344 c7.434,0,14.877,0.317,22.262,1.009c-0.626,6.118-1.159,12.244-1.525,18.362c-0.526,8.234-0.792,16.519-0.792,24.804 c0,64.595,15.728,127.973,45.959,185.283C163.546,454.748,155.678,450.947,148.085,446.613z M256.221,475.009 c-15.47,0-30.822-1.634-45.866-4.859h-0.058c-2.634-4.117-5.168-8.285-7.594-12.502c-32.614-56.576-49.609-120.005-49.609-184.866 c0-7.701,0.267-15.412,0.742-23.112c0.318-5.443,0.792-10.819,1.376-16.145c30.605,6.01,60.052,17.72,86.599,34.664 c-0.05,1.426-0.05,2.851-0.05,4.276c0,32.822,5.751,65.278,16.878,95.942c3.068,8.602,6.602,17.045,10.611,25.33 c2.742,5.859,5.751,11.61,8.926,17.253c11.127,19.686,24.696,38.106,40.574,54.834C298.17,472.001,277.166,475.009,256.221,475.009 z M446.621,363.923c-18.636,32.931-45.916,61.419-81.114,81.748c-6.068,3.534-12.294,6.693-18.578,9.594 c-17.946-17.204-32.931-36.674-44.858-57.785c-2.584-4.584-5.009-9.236-7.276-13.978c5.642-2.434,11.185-5.068,16.728-7.818 c66.97-33.289,122.697-84.374,161.695-148.027c1.217,9.352,1.792,18.737,1.843,28.13C475.06,293.628,465.2,330.992,446.621,363.923 z"/> </g> </g>
</svg>